<?xml version="1.0" encoding="utf-8"?>
<!-- Generator: Adobe Illustrator 18.0.0, SVG Export Plug-In . SVG Version: 6.00 Build 0)  -->
<!DOCTYPE svg PUBLIC "-//W3C//DTD SVG 1.1//EN" "http://www.w3.org/Graphics/SVG/1.1/DTD/svg11.dtd">
<svg version="1.1" id="Layer_1" xmlns="http://www.w3.org/2000/svg" xmlns:xlink="http://www.w3.org/1999/xlink" x="0px" y="0px"
	 viewBox="0 0 108.5 16.7" enable-background="new 0 0 108.5 16.7" xml:space="preserve">
<path fill-rule="evenodd" clip-rule="evenodd" fill="#E3CD67" d="M179.3-78.8c-5.6-22.4-15.7-41.3-25.5-58.8
	c-4.9-8.8-10.2-18.5-11.7-30.3c-1.8-13.7,1.3-25.7,5.9-35.2c4.4-9.3,9.3-19.5,11-31.2c1.9-12.6-0.4-25.6-6.7-34.4
	c-2.5-3.4-4.7-4.9-8.7-5.4c-2.1-0.3-4.7,0.6-6.5,2c-1.8,1.4-4,5-4.8,7.2c-1,2.9-1.4,5.5-2.1,9.1c-0.6,3.3-1.7,6.8-2.7,9.4
	c-2.1,5.7-4.9,11.6-9,15.2c-4.2,3.7-13.1,5-20.9,3.7c-4.8-0.8-36-16.3-42.1-19.3c-8.5-4.2-40.4-20.7-46-24.2
	c-6.1-3.9-10.2-10.2-13.6-16c-5.4-9.5-8.6-20.6-10.2-34.2c-0.7-5.9-0.7-14.4-6.2-15.3c-3.5-0.6-6.3,1.4-8.3,3.2
	c-2,1.8-3.8,4-5.3,6.3c-3.3,5-6.5,9.4-8.3,14.9c-3.8,11.3-4.3,28.2-0.9,40.1c3.4,11.8,8.7,22.1,13.9,32.4
	c5.1,10.1,10.2,21.6,11.9,34.5c1.9,14.9-1.4,27.7-6.2,38.6c-4.7,10.8-10.5,20.8-15.6,30.8c-9,17.5-19.6,34.8-22.5,58.5
	c-0.4,3.5-0.9,7.4-0.7,10.9c0.7,12.3,6,22.8,11.7,30.9C-44.6-27.2-37-20-29.7-14.2C-21.5-7.8-13.3-2.7-3.2,1.4
	c15,6.1,32.7,9.4,52.4,10.9c4.7,0.4,9.3,0.9,13.9,0.7c7.7-0.3,15.1,0.2,23-0.4c6.4-0.5,12.8-1,19-1.9c11.5-1.6,22.6-5.2,32.5-9.7
	c10-4.6,18.7-10.1,25.5-16.7c3.5-3.4,6.3-7.6,9.2-11.9c5.8-8.6,9-19.4,9.4-32.6C182-66.7,180.8-73,179.3-78.8z"/>
</svg>
