<?xml version="1.0" encoding="utf-8"?>
<!-- Generator: Adobe Illustrator 18.0.0, SVG Export Plug-In . SVG Version: 6.00 Build 0)  -->
<!DOCTYPE svg PUBLIC "-//W3C//DTD SVG 1.1//EN" "http://www.w3.org/Graphics/SVG/1.1/DTD/svg11.dtd">
<svg version="1.1" id="Layer_1" xmlns="http://www.w3.org/2000/svg" xmlns:xlink="http://www.w3.org/1999/xlink" x="0px" y="0px"
	 viewBox="329.2 446.5 282.8 345.5" enable-background="new 329.2 446.5 282.8 345.5" xml:space="preserve">
<path fill="#FFFFFF" d="M568.1,605.7c-6.3-16.3,2.1-29,4.8-35.8c4.6-12.2,8.5-19.2,10.4-32.8c2.2-14.6-1.7-25.8-8-34.9
	c-2.1-3-5.6-5.6-10.9-6c-2.4-0.2-6,0.7-8.2,2.2c-2.1,1.6-3.5,3.2-4.5,6.4c-1.2,3.2-1.5,5.9-2.5,10c-1,4.3-1.7,6.3-4.1,11.1
	c-2.5,5.6-6,8.5-9.8,11.2c-3.1,2.2-12.5,6.4-24.2,3.8c-9.2-2-15.3-9.6-17.8-25.4c-0.9-5.8-2.5-25.1-2.7-28.8c-0.8-17,0-29.8,0-44
	l0.3-336.1c0.1-0.2,2.9-0.2,8.5-3.2c5.6-2.9,5-2.3,9.5-5c1.2-0.7,3.8-2.7,4.3-3.7c0.7-1.4,0.3-5.2,0-7.6c-1-7.4-2.2-15.6-2.9-21.7
	c-1.2-10.7-1.7-19.9-1.9-30.6c-0.2-18.1,1.7-33,5.2-47.4c1.3-5.1,3.1-9.8,3.2-14.6c0.1-4.1,0.1-5.3-2-7.6c-1.6-1.9-6.4-3.7-10.5-2.9
	c-6.7,1.3-20.3,4.3-27.8,11.2c-1.5,1.3-3.2,6.3-4.5,9.8l-7.8-2.2l1.4-4.3l-6.4-2.1l0,0c-2.1-0.5-4.8,2.1-6,5.9
	c-1.3,3.8-0.7,7.5,1.4,8.3l0,0l6.4,2.1l1.4-4.3l7,2.3c-0.1,0.3-0.1,0.5-0.1,0.5l-5.1,15.4l-7-2.3l1.4-4.3l-6.4-2.1l0,0
	c-2.2-0.8-4.9,1.9-6.1,5.7s-0.7,7.5,1.4,8.3l0,0l6.4,2.1l1.4-4.3l7,2.3L457,26.1l-7-2.3l1.4-4.3l-6.4-2.1l0,0
	c-2.1-0.5-4.8,2.1-6,5.9c-1.3,3.8-0.7,7.5,1.4,8.3l0,0l6.4,2.1l1.4-4.3l7,2.3L450,47.6l-7-2.3l1.4-4.3l-6.4-2.1l0,0
	c-2.1-0.5-4.8,2.1-6,5.9c-1.3,3.8-0.7,7.5,1.4,8.3l0,0l6.4,2.1l1.4-4.3l7,2.3l-5.7,16.3l-7-2.3l1.4-4.3l-6.4-2.1l0,0
	c-2.1-0.5-4.8,2.1-6,5.9c-1.3,3.8-0.7,7.5,1.4,8.3l0,0l6.4,2.1l1.4-4.3l7,2.3l-5.2,16l-7-2.3l1.4-4.3l-6.4-2.1l0,0
	c-2.1-0.5-4.8,2.1-6,5.9c-1.3,3.8-0.7,7.5,1.4,8.3l0,0l6.4,2.1l1.4-4.3l7,2.3l-0.7,2c-0.7,2.3-1.5,6.3-0.8,8.6
	c1.3,3.8,7.4,4.1,7.4,4.1l7.6,2.1v332.1c-0.9,26.4,0,50.1-8.1,60.1c-8.7,10.8-24.7,0.2-30.2-5.3c-6.6-6.6-12.7-18.1-14.7-33.8
	c-0.8-6.8-1.9-18.4-8.2-19.5c-4.1-0.7-7.3,1.6-9.6,3.6c-2.3,2.1-11.5,13.1-15.8,24.6c-3.7,10-4.8,15.4-4.9,23.4
	c-0.2,14.3,6.6,27.2,12.7,39c5.6,10.7,10,14.8,13.7,26.8c4.2,13.1-2.9,29.9-13.1,43.7c-12.4,16.6-33.9,37.1-39.3,76.6
	c-0.7,5.4-0.7,11.6-0.2,16.6c1.5,14.1,6.7,25,13.3,34.4c6.8,9.6,15.8,18.1,24.2,24.7c9.5,7.4,19,13.3,30.7,18.1
	c17.4,7.1,37.9,10.9,60.7,12.6c5.4,0.5,10.8,1,16.1,0.8c8.9-0.3,17.5,0.2,26.6-0.5c7.4-0.6,14.8-1.2,22-2.2
	c13.3-1.9,26.2-6,37.7-11.2c11.6-5.3,21.8-11.6,29.5-19.3c4.8-4.9,7.3-8.8,10.7-13.8c6.7-10,11.5-20.4,11-35.7
	C610.7,661.5,583.6,646.6,568.1,605.7z"/>
<text transform="matrix(4.489660e-11 -1 1 4.489660e-11 479.1562 365.277)" font-family="'AlfaSlabOne-Regular'" font-size="29.8363">Stomp Delirium!</text>
</svg>
